<svg xmlns="http://www.w3.org/2000/svg" width="46" height="46" viewBox="0 0 46 46">
  <g id="Group_79967" data-name="Group 79967" transform="translate(-680 -326)">
    <g id="Rectangle_31642" data-name="Rectangle 31642" transform="translate(680 326)" fill="#fff" stroke="#ddd" stroke-width="1">
      <rect width="46" height="46" rx="8" stroke="none"/>
      <rect x="0.5" y="0.5" width="45" height="45" rx="7.5" fill="none"/>
    </g>
    <g id="Group_79969" data-name="Group 79969">
      <rect id="Rectangle_31643" data-name="Rectangle 31643" width="32" height="32" transform="translate(687 333)" fill="none"/>
      <path id="Path_96400" data-name="Path 96400" d="M21.756,21.556a.816.816,0,0,0,1.135-.269,14.392,14.392,0,0,0,2.371-8,14.556,14.556,0,0,0-2.371-8.013A.809.809,0,0,0,21.756,5a.834.834,0,0,0-.185,1.2,13.048,13.048,0,0,1,0,14.151A.834.834,0,0,0,21.756,21.556Zm-10.88-.74a1.065,1.065,0,0,0,1.093-1.093V6.884a1.1,1.1,0,0,0-1.11-1.135,1.624,1.624,0,0,0-1.194.622L6.15,9.658a.266.266,0,0,1-.193.076H3.577A1.753,1.753,0,0,0,1.66,11.727v3.128a1.753,1.753,0,0,0,1.917,1.993h2.38a.281.281,0,0,1,.193.076l3.515,3.313A1.677,1.677,0,0,0,10.876,20.816Zm7.475-1.539a.811.811,0,0,0,1.127-.244,10.133,10.133,0,0,0,1.732-5.76,10.051,10.051,0,0,0-1.732-5.76.8.8,0,1,0-1.286.959,8.624,8.624,0,0,1,1.4,4.8,8.733,8.733,0,0,1-1.4,4.8A.818.818,0,0,0,18.351,19.278Zm-3.389-2.253a.79.79,0,0,0,1.093-.219,5.991,5.991,0,0,0,1.085-3.532,6.01,6.01,0,0,0-1.085-3.532.781.781,0,0,0-1.093-.21.838.838,0,0,0-.16,1.253,4.4,4.4,0,0,1,.723,2.489,4.424,4.424,0,0,1-.723,2.489A.849.849,0,0,0,14.962,17.024Z" transform="translate(689.538 335.723)" fill="#1c1c1e"/>
    </g>
  </g>
</svg>
