<svg xmlns="http://www.w3.org/2000/svg" width="46" height="46" viewBox="0 0 46 46">
  <g id="Group_79967" data-name="Group 79967" transform="translate(-680 -326)">
    <g id="Rectangle_31642" data-name="Rectangle 31642" transform="translate(680 326)" fill="#fff" stroke="#ddd" stroke-width="1">
      <rect width="46" height="46" rx="8" stroke="none"/>
      <rect x="0.5" y="0.5" width="45" height="45" rx="7.5" fill="none"/>
    </g>
    <g id="Group_79969" data-name="Group 79969">
      <rect id="Rectangle_31643" data-name="Rectangle 31643" width="32" height="32" transform="translate(687 333)" fill="none"/>
      <path id="Path_96396" data-name="Path 96396" d="M18403.852,12425.347a.858.858,0,0,1-.852-.851.84.84,0,0,1,.852-.851h7.9a.843.843,0,0,1,.855.851.859.859,0,0,1-.855.851Zm0-3.647a.857.857,0,0,1-.852-.85.84.84,0,0,1,.852-.851h9.9a.839.839,0,0,1,.85.851.857.857,0,0,1-.85.85Zm0-4.1a.84.84,0,0,1-.852-.851.829.829,0,0,1,.852-.837h7.9a.832.832,0,0,1,.855.837.843.843,0,0,1-.855.851Zm0-3.9a.85.85,0,1,1,0-1.7h10.9a.85.85,0,1,1,0,1.7Z" transform="translate(-17700 -12070.497)" fill="#1c1c1e"/>
      <path id="Path_96395" data-name="Path 96395" d="M13.746,16.143a4.307,4.307,0,1,0-4.307-4.307A4.3,4.3,0,0,0,13.746,16.143Z" transform="translate(681.115 336.517)" fill="#1c1c1e"/>
    </g>
  </g>
</svg>
