<svg xmlns="http://www.w3.org/2000/svg" width="46" height="46" viewBox="0 0 46 46">
  <g id="Group_79967" data-name="Group 79967" transform="translate(-680 -326)">
    <g id="Rectangle_31642" data-name="Rectangle 31642" transform="translate(680 326)" fill="#fff" stroke="#eee" stroke-width="1">
      <rect width="46" height="46" rx="8" stroke="none"/>
      <rect x="0.5" y="0.5" width="45" height="45" rx="7.5" fill="none"/>
    </g>
    <g id="Group_79969" data-name="Group 79969">
      <rect id="Rectangle_31643" data-name="Rectangle 31643" width="32" height="32" transform="translate(687 333)" fill="none"/>
      <path id="Path_96309" data-name="Path 96309" d="M-6.7,14.028H9.227a18.832,18.832,0,0,0,0-2.05H-5.629a.859.859,0,0,1-.946-.964V2.983a.854.854,0,0,1,.946-.958H14.343a.861.861,0,0,1,.952.958V8.235a7,7,0,0,1,2.056.214V1.879a1.707,1.707,0,0,0-1.935-1.91H-6.7a1.7,1.7,0,0,0-1.929,1.91V12.117A1.7,1.7,0,0,0-6.7,14.028ZM17.577,17.3c2.521-.916,3.369-3.009,2.4-5.707l-.409-1.123C19.2,9.456,18.474,8.986,17.894,9.2a.21.21,0,0,0-.14.287l.177.488c.073.214.006.366-.116.415-.14.049-.287-.018-.366-.238l-.116-.324a.989.989,0,0,0-1.294-.671c-.25.085-.33.238-.25.458l.244.659c.079.22.012.366-.116.409s-.287-.012-.366-.232l-.22-.616a.951.951,0,0,0-1.288-.677c-.238.085-.323.25-.25.452l.476,1.312c.079.214.006.36-.116.409-.14.049-.287-.018-.366-.238L12.217,6.776a.725.725,0,1,0-1.361.488l2.295,6.281a.206.206,0,0,1-.1.287c-.085.03-.177.006-.293-.116l-1.532-1.648a.686.686,0,0,0-.793-.226.678.678,0,0,0-.452.891,1.094,1.094,0,0,0,.183.324l1.978,2.46C13.792,17.568,15.684,17.989,17.577,17.3Z" transform="translate(697.631 341.031)" fill="#1c1c1e"/>
    </g>
  </g>
</svg>
