<svg xmlns="http://www.w3.org/2000/svg" width="46" height="46" viewBox="0 0 46 46">
  <g id="Group_79967" data-name="Group 79967" transform="translate(-680 -326)">
    <g id="Rectangle_31642" data-name="Rectangle 31642" transform="translate(680 326)" fill="#fff" stroke="#eee" stroke-width="1">
      <rect width="46" height="46" rx="8" stroke="none"/>
      <rect x="0.5" y="0.5" width="45" height="45" rx="7.5" fill="none"/>
    </g>
    <g id="Group_79969" data-name="Group 79969">
      <rect id="Rectangle_31643" data-name="Rectangle 31643" width="32" height="32" transform="translate(687 333)" fill="none"/>
      <g id="Group_79986" data-name="Group 79986" transform="translate(2.979 8.055)">
        <path id="Path_96306" data-name="Path 96306" d="M17.516,10.532H42.323a.807.807,0,1,0,0-1.615H17.516a.8.8,0,0,0-.8.8A.813.813,0,0,0,17.516,10.532Z" transform="translate(669.308 340.366)" fill="#1c1c1e"/>
      </g>
      <g id="Group_79989" data-name="Group 79989" transform="translate(2.979 -7.945)">
        <path id="Path_96306-2" data-name="Path 96306" d="M17.516,10.532H42.323a.807.807,0,1,0,0-1.615H17.516a.8.8,0,0,0-.8.8A.813.813,0,0,0,17.516,10.532Z" transform="translate(669.308 340.366)" fill="#1c1c1e"/>
      </g>
      <g id="Group_79988" data-name="Group 79988" transform="translate(2.979 5.729)">
        <path id="Path_96306-3" data-name="Path 96306" d="M17.516,10.532H33.329a.807.807,0,1,0,0-1.615H17.516a.8.8,0,0,0-.8.8A.813.813,0,0,0,17.516,10.532Z" transform="translate(669.308 339.366)" fill="#1c1c1e"/>
      </g>
      <g id="Group_79990" data-name="Group 79990" transform="translate(2.979 -11.271)">
        <path id="Path_96306-4" data-name="Path 96306" d="M17.516,10.532H28.329a.807.807,0,1,0,0-1.615H17.516a.8.8,0,0,0-.8.8A.813.813,0,0,0,17.516,10.532Z" transform="translate(669.308 340.366)" fill="#1c1c1e"/>
      </g>
      <g id="Group_79987" data-name="Group 79987" transform="translate(3.185 -3.945)">
        <path id="Path_96306-5" data-name="Path 96306" d="M19.84,15.206H39.674a3.145,3.145,0,1,0,0-6.289H19.84a3.114,3.114,0,0,0-3.127,3.127A3.166,3.166,0,0,0,19.84,15.206Z" transform="translate(669.102 340.366)" fill="#1c1c1e"/>
      </g>
    </g>
  </g>
</svg>
