<svg xmlns="http://www.w3.org/2000/svg" width="46" height="46" viewBox="0 0 46 46">
  <g id="Group_79967" data-name="Group 79967" transform="translate(-680 -326)">
    <g id="Rectangle_31642" data-name="Rectangle 31642" transform="translate(680 326)" fill="#fff" stroke="#eee" stroke-width="1">
      <rect width="46" height="46" rx="8" stroke="none"/>
      <rect x="0.5" y="0.5" width="45" height="45" rx="7.5" fill="none"/>
    </g>
    <g id="Group_79969" data-name="Group 79969">
      <rect id="Rectangle_31643" data-name="Rectangle 31643" width="32" height="32" transform="translate(687 333)" fill="none"/>
      <path id="Path_96315" data-name="Path 96315" d="M18.948,5.207A13.741,13.741,0,1,0,32.689,18.948,13.757,13.757,0,0,0,18.948,5.207Zm0,25.564A11.823,11.823,0,1,1,30.772,18.948,11.837,11.837,0,0,1,18.948,30.771Zm4.844-7.625a5.115,5.115,0,0,1-9.687,0A1.271,1.271,0,0,1,15.334,21.5h7.227a1.27,1.27,0,0,1,1.229,1.642Zm.27-6.755a1.279,1.279,0,1,1-1.279-1.279A1.279,1.279,0,0,1,24.061,16.391Zm-10.225,0a1.279,1.279,0,1,1,1.279,1.279A1.279,1.279,0,0,1,13.836,16.391Z" transform="translate(684.845 330.052)"/>
    </g>
  </g>
</svg>
