<svg xmlns="http://www.w3.org/2000/svg" width="46" height="46" viewBox="0 0 46 46">
  <g id="Group_79967" data-name="Group 79967" transform="translate(-680 -326)">
    <g id="Rectangle_31642" data-name="Rectangle 31642" transform="translate(680 326)" fill="#fff" stroke="#ddd" stroke-width="1">
      <rect width="46" height="46" rx="8" stroke="none"/>
      <rect x="0.5" y="0.5" width="45" height="45" rx="7.5" fill="none"/>
    </g>
    <g id="Group_79969" data-name="Group 79969">
      <rect id="Rectangle_31643" data-name="Rectangle 31643" width="32" height="32" transform="translate(687 333)" fill="none"/>
      <path id="Path_96398" data-name="Path 96398" d="M8.764,26.868H28.152c2.441,0,3.686-1.245,3.686-3.638V9.467c0-2.417-1.245-3.662-3.686-3.662H8.764c-2.417,0-3.686,1.245-3.686,3.662V23.23C5.078,25.623,6.347,26.868,8.764,26.868Zm5.1-10.292a2.812,2.812,0,1,1,0-5.625,2.813,2.813,0,0,1,0,5.625ZM8.98,24.426A1.34,1.34,0,0,1,7.52,22.99V21.841l2.968-2.513a2.371,2.371,0,0,1,1.532-.67,2.58,2.58,0,0,1,1.6.694l2.154,1.939,5.362-4.763a2.582,2.582,0,0,1,1.771-.718,2.5,2.5,0,0,1,1.771.742L29.4,20.836V22.99a1.333,1.333,0,0,1-1.436,1.436Z" transform="translate(684.541 332.664)" fill="#1c1c1e"/>
    </g>
  </g>
</svg>
