<svg xmlns="http://www.w3.org/2000/svg" width="46" height="46" viewBox="0 0 46 46">
  <g id="Group_79967" data-name="Group 79967" transform="translate(-680 -326)">
    <g id="Rectangle_31642" data-name="Rectangle 31642" transform="translate(680 326)" fill="#fff" stroke="#ddd" stroke-width="1">
      <rect width="46" height="46" rx="8" stroke="none"/>
      <rect x="0.5" y="0.5" width="45" height="45" rx="7.5" fill="none"/>
    </g>
    <g id="Group_79969" data-name="Group 79969">
      <rect id="Rectangle_31643" data-name="Rectangle 31643" width="32" height="32" transform="translate(687 333)" fill="none"/>
      <g id="info" transform="translate(692.334 337.339)">
        <rect id="Rectangle_26033" data-name="Rectangle 26033" width="22" height="22" transform="translate(-0.334 -0.334)" fill="none"/>
        <path id="Union_127" data-name="Union 127" d="M2.715,15.922a9.342,9.342,0,0,1,0-13.168,9.123,9.123,0,0,1,13.063,0,9.322,9.322,0,0,1,0,13.168,9.123,9.123,0,0,1-13.063,0Zm.2-.2A8.827,8.827,0,0,0,9.24,18.392,8.827,8.827,0,0,1,2.917,15.72,9.017,9.017,0,0,1,.277,9.338,9.017,9.017,0,0,0,2.917,15.72ZM1.952,9.338A7.348,7.348,0,0,0,9.24,16.716,7.382,7.382,0,0,0,9.232,1.952,7.342,7.342,0,0,0,1.952,9.338Zm14.872,0A7.634,7.634,0,0,0,9.232,1.677,7.615,7.615,0,0,0,1.678,9.338,7.615,7.615,0,0,1,9.232,1.677,7.634,7.634,0,0,1,16.824,9.338ZM8.486,13.881a.959.959,0,0,1-.258-.7l.115-4.058a.839.839,0,0,1,.906-.883.815.815,0,0,1,.877.883l.129,4.049a.933.933,0,0,1-.26.7,1.021,1.021,0,0,1-.754.3A1.034,1.034,0,0,1,8.486,13.881Zm.754.154a.811.811,0,0,1-.873-.8A.811.811,0,0,0,9.24,14.035ZM8.107,6.5A1.106,1.106,0,0,1,9.248,5.434,1.071,1.071,0,1,1,8.107,6.5Zm1.141.931a.953.953,0,0,1-1-.931A.953.953,0,0,0,9.248,7.435Z" transform="translate(1.416 1.329)" fill="#262626"/>
      </g>
    </g>
  </g>
</svg>
