<svg xmlns="http://www.w3.org/2000/svg" width="46" height="46" viewBox="0 0 46 46">
  <g id="Group_79967" data-name="Group 79967" transform="translate(-680 -326)">
    <g id="Rectangle_31642" data-name="Rectangle 31642" transform="translate(680 326)" fill="#fff" stroke="#eee" stroke-width="1">
      <rect width="46" height="46" rx="8" stroke="none"/>
      <rect x="0.5" y="0.5" width="45" height="45" rx="7.5" fill="none"/>
    </g>
    <g id="Group_79969" data-name="Group 79969">
      <rect id="Rectangle_31643" data-name="Rectangle 31643" width="32" height="32" transform="translate(687 333)" fill="none"/>
      <path id="Subtraction_53" data-name="Subtraction 53" d="M18257.883,13272.742h-10.006l2.107-2.374h7.684a1.524,1.524,0,0,0,1.723-1.687v-10.289h-6.365a2.247,2.247,0,0,1-2.559-2.553v-6.462h-5.035a1.525,1.525,0,0,0-1.725,1.687v11.3l-2.359,2.16v-13.605a4.021,4.021,0,0,1,.982-2.93,3.9,3.9,0,0,1,2.885-.993h5.738a3.968,3.968,0,0,1,3.342,1.261l6.215,6.306a4.093,4.093,0,0,1,1.246,3.483v10.789a3.99,3.99,0,0,1-.98,2.915A3.918,3.918,0,0,1,18257.883,13272.742Zm-5.348-23.059h0v5.931c0,.491.213.7.715.7h5.82l-6.535-6.632Z" transform="translate(-17549 -12911.35)" fill="#1c1c1e"/>
      <path id="Path_96307" data-name="Path 96307" d="M9.954,12.009l.8-.815a2.133,2.133,0,0,1-1.389-.579A2.053,2.053,0,0,1,9.365,7.59l1.747-1.752a2.059,2.059,0,0,1,3.03,0,2.059,2.059,0,0,1,.005,3.03l-.894.889a2.12,2.12,0,0,1,.132,1.273l1.5-1.5A3.01,3.01,0,0,0,14.884,5.1a3.006,3.006,0,0,0-4.435-.005L8.618,6.922a3.01,3.01,0,0,0,.005,4.435A2.391,2.391,0,0,0,9.954,12.009Zm.489-4.446-.8.815a2.159,2.159,0,0,1,1.389.579,2.055,2.055,0,0,1,.005,3.03L9.286,13.735a2.049,2.049,0,0,1-3.025,0,2.049,2.049,0,0,1-.005-3.025l.889-.894a2.152,2.152,0,0,1-.132-1.273l-1.5,1.5a3,3,0,0,0,.005,4.43,3.01,3.01,0,0,0,4.435.011l1.831-1.836a3.01,3.01,0,0,0-.005-4.435A2.442,2.442,0,0,0,10.443,7.564Z" transform="translate(687.138 345.788)" fill="#1c1c1e" stroke="#1c1c1e" stroke-width="0.3"/>
    </g>
  </g>
</svg>
