<svg xmlns="http://www.w3.org/2000/svg" width="46" height="46" viewBox="0 0 46 46">
  <g id="Group_79967" data-name="Group 79967" transform="translate(-680 -326)">
    <g id="Rectangle_31642" data-name="Rectangle 31642" transform="translate(680 326)" fill="#fff" stroke="#eee" stroke-width="1">
      <rect width="46" height="46" rx="8" stroke="none"/>
      <rect x="0.5" y="0.5" width="45" height="45" rx="7.5" fill="none"/>
    </g>
    <g id="Group_79969" data-name="Group 79969">
      <rect id="Rectangle_31643" data-name="Rectangle 31643" width="32" height="32" transform="translate(687 333)" fill="none"/>
      <path id="Path_96295" data-name="Path 96295" d="M10.323,29.88H22.987c2.554,0,3.873-1.342,3.873-3.909V15.184A4.085,4.085,0,0,0,25.613,11.7L19.4,5.4a3.973,3.973,0,0,0-3.338-1.259H10.323c-2.542,0-3.873,1.342-3.873,3.92V25.971C6.45,28.538,7.781,29.88,10.323,29.88Zm.2-2.376a1.514,1.514,0,0,1-1.711-1.687V8.2a1.523,1.523,0,0,1,1.723-1.687h5.037v6.463a2.247,2.247,0,0,0,2.554,2.554H24.5V25.817A1.518,1.518,0,0,1,22.774,27.5ZM18.354,13.45c-.5,0-.713-.214-.713-.7V6.821l6.534,6.629Zm2.483,5.192H12.26a.734.734,0,0,0-.772.737.746.746,0,0,0,.772.76h8.578a.741.741,0,0,0,.748-.76A.728.728,0,0,0,20.837,18.641Zm0,3.968H12.26a.746.746,0,0,0-.772.76.734.734,0,0,0,.772.737h8.578a.728.728,0,0,0,.748-.737A.741.741,0,0,0,20.837,22.609Z" transform="translate(685.894 331.515)" fill="#1c1c1e"/>
    </g>
  </g>
</svg>
