<svg xmlns="http://www.w3.org/2000/svg" width="46" height="46" viewBox="0 0 46 46">
  <g id="Group_79967" data-name="Group 79967" transform="translate(-680 -326)">
    <g id="Rectangle_31642" data-name="Rectangle 31642" transform="translate(680 326)" fill="#fff" stroke="#eee" stroke-width="1">
      <rect width="46" height="46" rx="8" stroke="none"/>
      <rect x="0.5" y="0.5" width="45" height="45" rx="7.5" fill="none"/>
    </g>
    <g id="Group_79969" data-name="Group 79969">
      <rect id="Rectangle_31643" data-name="Rectangle 31643" width="32" height="32" transform="translate(687 333)" fill="none"/>
      <path id="Path_96297" data-name="Path 96297" d="M4.966,26.047a1.485,1.485,0,0,0,1.595-1.266l1.38-3.9h7.214l1.38,3.9a1.485,1.485,0,0,0,1.595,1.266,1.351,1.351,0,0,0,1.493-1.392,2.6,2.6,0,0,0-.177-.937L13.877,8.656a2.214,2.214,0,0,0-2.316-1.62A2.173,2.173,0,0,0,9.308,8.644L3.7,23.794a2.4,2.4,0,0,0-.177.886A1.3,1.3,0,0,0,4.966,26.047ZM8.675,18.5l2.848-8.2H11.6l2.848,8.2Zm17.884,7.645A4.973,4.973,0,0,0,31.052,23.5H31.1V24.92a1.209,1.209,0,0,0,1.291,1.24,1.237,1.237,0,0,0,1.3-1.354V16.465c0-2.8-2.139-4.62-5.506-4.62-2.595,0-4.658,1.063-5.366,2.734a2.108,2.108,0,0,0-.215.873,1.065,1.065,0,0,0,1.152,1.076,1.25,1.25,0,0,0,1.114-.57A3.327,3.327,0,0,1,28.1,13.972c1.823,0,2.936,1.025,2.936,2.683v1.038l-3.949.228c-3.341.177-5.177,1.671-5.177,4.1C21.914,24.49,23.838,26.148,26.559,26.148Zm.721-2.05c-1.582,0-2.671-.861-2.671-2.177,0-1.253,1.013-2.088,2.848-2.2l3.582-.24v1.278A3.535,3.535,0,0,1,27.28,24.1Z" transform="translate(684.39 332.402)" fill="#1c1c1e"/>
    </g>
  </g>
</svg>
