<svg xmlns="http://www.w3.org/2000/svg" width="46" height="46" viewBox="0 0 46 46">
  <g id="Group_79967" data-name="Group 79967" transform="translate(-680 -326)">
    <g id="Rectangle_31642" data-name="Rectangle 31642" transform="translate(680 326)" fill="#fff" stroke="#eee" stroke-width="1">
      <rect width="46" height="46" rx="8" stroke="none"/>
      <rect x="0.5" y="0.5" width="45" height="45" rx="7.5" fill="none"/>
    </g>
    <g id="Group_79969" data-name="Group 79969">
      <rect id="Rectangle_31643" data-name="Rectangle 31643" width="32" height="32" transform="translate(687 333)" fill="none"/>
      <path id="Path_96303" data-name="Path 96303" d="M15.16,17.392a5.007,5.007,0,0,0-4.905-5.251A4.479,4.479,0,0,0,6.83,13.632H6.484a6.951,6.951,0,0,1,4.938-4.387,1.9,1.9,0,0,0,.756-.357.746.746,0,0,0,.281-.616.856.856,0,0,0-.94-.832,3.771,3.771,0,0,0-1.264.249A9.429,9.429,0,0,0,6.419,10.12a8.519,8.519,0,0,0-2.377,6.029c0,4.171,2.626,6.58,5.781,6.58A5.216,5.216,0,0,0,15.16,17.392Zm13.355,0a5.014,5.014,0,0,0-4.905-5.251,4.462,4.462,0,0,0-3.425,1.491h-.357a6.971,6.971,0,0,1,4.938-4.387,1.953,1.953,0,0,0,.767-.357.737.737,0,0,0,.27-.616.846.846,0,0,0-.929-.832,3.826,3.826,0,0,0-1.275.249,9.5,9.5,0,0,0-3.836,2.431A8.557,8.557,0,0,0,17.4,16.149c0,4.171,2.626,6.58,5.77,6.58A5.218,5.218,0,0,0,28.516,17.392Z" transform="translate(686.677 334.133)" fill="#1c1c1e"/>
    </g>
  </g>
</svg>
