<svg xmlns="http://www.w3.org/2000/svg" width="46" height="46" viewBox="0 0 46 46">
  <g id="Group_79967" data-name="Group 79967" transform="translate(-680 -326)">
    <g id="Rectangle_31642" data-name="Rectangle 31642" transform="translate(680 326)" fill="#fff" stroke="#ddd" stroke-width="1">
      <rect width="46" height="46" rx="8" stroke="none"/>
      <rect x="0.5" y="0.5" width="45" height="45" rx="7.5" fill="none"/>
    </g>
    <g id="Group_79969" data-name="Group 79969">
      <rect id="Rectangle_31643" data-name="Rectangle 31643" width="32" height="32" transform="translate(687 333)" fill="none"/>
      <path id="Path_96403" data-name="Path 96403" d="M18183.818,12557.839l-4.641-3.406-4.689,3.406a1.851,1.851,0,0,1-1.033.413.89.89,0,0,1-.547-.186c-.416-.316-.506-.836-.262-1.543l1.855-5.465-4.748-3.373c-.635-.441-.871-.915-.7-1.4s.627-.725,1.363-.725h.041l5.83.037,1.775-5.493c.223-.725.605-1.1,1.117-1.1.5,0,.859.354,1.086,1.035a.4.4,0,0,1,.021.066l1.754,5.493,5.762-.037h.109c.686.015,1.119.256,1.281.725a.9.9,0,0,1,.047.318,1.451,1.451,0,0,1-.74,1.085l-4.693,3.373,1.83,5.465a2.094,2.094,0,0,1,.131.716.984.984,0,0,1-.389.827.871.871,0,0,1-.543.186A1.806,1.806,0,0,1,18183.818,12557.839Zm-.068-1.929a.053.053,0,0,0,.033.014c.008,0,.014,0,.021-.014a.039.039,0,0,0,.012-.027.173.173,0,0,0-.012-.047l-1.7-4.8a1.178,1.178,0,0,1-.08-.381.683.683,0,0,1,.391-.6l4.2-2.881c.029-.021.047-.032.047-.048a.054.054,0,0,0-.008-.019c0-.017-.033-.027-.076-.027l-5.09.116c-.023,0-.049.006-.074.006a.7.7,0,0,1-.758-.586l-1.43-4.885c-.014-.041-.021-.055-.047-.06s-.029.019-.041.06l-1.447,4.885a.7.7,0,0,1-.77.58h-.076l-5.148-.116c-.045,0-.074.011-.08.027s0,.039.043.066l4.248,2.881a.706.706,0,0,1,.314.98l-1.719,4.8c-.014.046-.018.057,0,.074a.025.025,0,0,0,.02.014.047.047,0,0,0,.035-.014l0,0,.016,0,4.08-3.113a.731.731,0,0,1,1.043,0l4.033,3.113.006,0Z" transform="translate(-17476.121 -12199.626)" fill="#1c1c1e"/>
    </g>
  </g>
</svg>
