<svg xmlns="http://www.w3.org/2000/svg" width="46" height="46" viewBox="0 0 46 46">
  <g id="Group_79967" data-name="Group 79967" transform="translate(-680 -326)">
    <g id="Rectangle_31642" data-name="Rectangle 31642" transform="translate(680 326)" fill="#fff" stroke="#eee" stroke-width="1">
      <rect width="46" height="46" rx="8" stroke="none"/>
      <rect x="0.5" y="0.5" width="45" height="45" rx="7.5" fill="none"/>
    </g>
    <g id="Group_79969" data-name="Group 79969">
      <rect id="Rectangle_31643" data-name="Rectangle 31643" width="32" height="32" transform="translate(687 333)" fill="none"/>
      <path id="Path_96298" data-name="Path 96298" d="M9.838,15.544a5.419,5.419,0,1,0-5.419-5.406A5.454,5.454,0,0,0,9.838,15.544Zm-.651-2.507a.792.792,0,0,1-.651-.356L7.159,11.035a.723.723,0,0,1-.184-.516.67.67,0,0,1,1.241-.356l.946,1.18,2.187-3.514a.717.717,0,0,1,.614-.369.657.657,0,0,1,.676.627.873.873,0,0,1-.16.516L9.862,12.669A.771.771,0,0,1,9.186,13.038Zm9.952-1.818H31.5a1.081,1.081,0,1,0,0-2.163H19.139a1.081,1.081,0,0,0,0,2.163Zm-9.3,18.529A5.419,5.419,0,1,0,4.419,24.33,5.457,5.457,0,0,0,9.838,29.748Zm0-2.089a3.336,3.336,0,1,1,3.33-3.33A3.364,3.364,0,0,1,9.838,27.659Zm9.3-2.224H31.5a1.081,1.081,0,1,0,0-2.163H19.139a1.081,1.081,0,0,0,0,2.163Z" transform="translate(684.57 331.729)" fill="#1c1c1e"/>
    </g>
  </g>
</svg>
