<svg xmlns="http://www.w3.org/2000/svg" width="46" height="46" viewBox="0 0 46 46">
  <g id="Group_79967" data-name="Group 79967" transform="translate(-680 -326)">
    <g id="Rectangle_31642" data-name="Rectangle 31642" transform="translate(680 326)" fill="#fff" stroke="#ddd" stroke-width="1">
      <rect width="46" height="46" rx="8" stroke="none"/>
      <rect x="0.5" y="0.5" width="45" height="45" rx="7.5" fill="none"/>
    </g>
    <g id="Group_79969" data-name="Group 79969">
      <rect id="Rectangle_31643" data-name="Rectangle 31643" width="32" height="32" transform="translate(687 333)" fill="none"/>
      <path id="Path_96396" data-name="Path 96396" d="M18403.852,12425.347a.858.858,0,0,1-.852-.851.84.84,0,0,1,.852-.851h7.9a.843.843,0,0,1,.855.851.859.859,0,0,1-.855.851Zm0-3.647a.857.857,0,0,1-.852-.85.84.84,0,0,1,.852-.851h9.9a.839.839,0,0,1,.85.851.857.857,0,0,1-.85.85Zm0-4.1a.84.84,0,0,1-.852-.851.829.829,0,0,1,.852-.837h7.9a.832.832,0,0,1,.855.837.843.843,0,0,1-.855.851Zm0-3.9a.85.85,0,1,1,0-1.7h10.9a.85.85,0,1,1,0,1.7Z" transform="translate(-17700 -12070.497)" fill="#1c1c1e"/>
      <path id="Path_96402" data-name="Path 96402" d="M15.3,6.623a1.644,1.644,0,0,0-.72.238L9.261,10.4c-.517.25-.714.517-.714.877s.2.627.714.877l5.318,3.537a1.629,1.629,0,0,0,.726.244c.47,0,.8-.36.8-.935V7.552A.82.82,0,0,0,15.3,6.623Z" transform="translate(682.952 357.603) rotate(-90)" fill="#1c1c1e"/>
    </g>
  </g>
</svg>
