<svg xmlns="http://www.w3.org/2000/svg" width="46" height="46" viewBox="0 0 46 46">
  <g id="Group_79967" data-name="Group 79967" transform="translate(-680 -326)">
    <g id="Rectangle_31642" data-name="Rectangle 31642" transform="translate(680 326)" fill="#fff" stroke="#ddd" stroke-width="1">
      <rect width="46" height="46" rx="8" stroke="none"/>
      <rect x="0.5" y="0.5" width="45" height="45" rx="7.5" fill="none"/>
    </g>
    <g id="Group_79969" data-name="Group 79969">
      <rect id="Rectangle_31643" data-name="Rectangle 31643" width="32" height="32" transform="translate(687 333)" fill="none"/>
      <path id="Path_96399" data-name="Path 96399" d="M7.389,27.062H27.17c2.509,0,3.815-1.295,3.815-3.769V9.223c0-2.474-1.306-3.769-3.815-3.769H7.389c-2.5,0-3.8,1.283-3.8,3.769v14.07C3.585,25.767,4.891,27.062,7.389,27.062Zm.15-2.3a1.486,1.486,0,0,1-1.653-1.676V9.431A1.486,1.486,0,0,1,7.539,7.755H27.02a1.486,1.486,0,0,1,1.653,1.676V23.085a1.486,1.486,0,0,1-1.653,1.676Zm14.232-7.873a.733.733,0,0,0,0-1.272L15.123,11.7a.74.74,0,0,0-1.179.52v8.07c0,.555.636.832,1.179.509Z" transform="translate(685.717 332.742)" fill="#1c1c1e"/>
    </g>
  </g>
</svg>
