<svg xmlns="http://www.w3.org/2000/svg" width="46" height="46" viewBox="0 0 46 46">
  <g id="Group_79967" data-name="Group 79967" transform="translate(-680 -326)">
    <g id="Rectangle_31642" data-name="Rectangle 31642" transform="translate(680 326)" fill="#fff" stroke="#ddd" stroke-width="1">
      <rect width="46" height="46" rx="8" stroke="none"/>
      <rect x="0.5" y="0.5" width="45" height="45" rx="7.5" fill="none"/>
    </g>
    <g id="Group_79969" data-name="Group 79969">
      <rect id="Rectangle_31643" data-name="Rectangle 31643" width="32" height="32" transform="translate(687 333)" fill="none"/>
      <g id="info" transform="translate(692.334 337.339)">
        <rect id="Rectangle_26033" data-name="Rectangle 26033" width="22" height="22" transform="translate(-0.334 -0.334)" fill="none"/>
        <path id="Union_127" data-name="Union 127" d="M2.712,15.925a9.342,9.342,0,0,1,0-13.168,9.122,9.122,0,0,1,13.063,0,9.32,9.32,0,0,1,0,13.168,9.122,9.122,0,0,1-13.063,0ZM9.229,17a7.632,7.632,0,0,0,7.591-7.661A7.632,7.632,0,0,1,9.229,17ZM1.949,9.342a7.342,7.342,0,0,0,7.279,7.385A7.382,7.382,0,0,0,9.237,1.964,7.347,7.347,0,0,0,1.949,9.342ZM15.578,2.96a9,9,0,0,1,2.634,6.382A9,9,0,0,0,15.578,2.96a8.835,8.835,0,0,0-12.663,0A9.017,9.017,0,0,0,.272,9.342,9.017,9.017,0,0,1,2.915,2.96a8.835,8.835,0,0,1,12.663,0ZM8.109,12.645a1.141,1.141,0,1,1,1.143,1.068A1.1,1.1,0,0,1,8.109,12.645Zm2.138,0a1,1,0,0,0-1.993,0,1,1,0,0,1,1.993,0Zm-1.9-2.615L8.232,5.967a.944.944,0,0,1,.257-.7A1.11,1.11,0,0,1,10,5.271a.929.929,0,0,1,.258.7l-.128,4.055a.815.815,0,0,1-.877.882A.84.84,0,0,1,8.345,10.031Zm1.776-4.109a.827.827,0,0,0-.877-.812.815.815,0,0,0-.875.8.815.815,0,0,1,.875-.8A.827.827,0,0,1,10.121,5.921Z" transform="translate(1.416 1.328)" fill="#262626"/>
      </g>
    </g>
  </g>
</svg>
