<svg xmlns="http://www.w3.org/2000/svg" width="46" height="46" viewBox="0 0 46 46">
  <g id="Group_79967" data-name="Group 79967" transform="translate(-680 -326)">
    <g id="Rectangle_31642" data-name="Rectangle 31642" transform="translate(680 326)" fill="#fff" stroke="#ddd" stroke-width="1">
      <rect width="46" height="46" rx="8" stroke="none"/>
      <rect x="0.5" y="0.5" width="45" height="45" rx="7.5" fill="none"/>
    </g>
    <g id="Group_79969" data-name="Group 79969">
      <rect id="Rectangle_31643" data-name="Rectangle 31643" width="32" height="32" transform="translate(687 333)" fill="none"/>
      <g id="layer1" transform="translate(634.941 201.96)">
        <g id="g2366" transform="translate(54.079 137.398)">
          <path id="path1412" d="M68.045,156.682s8.759,0,10.932-.579a3.492,3.492,0,0,0,2.466-2.439,34.658,34.658,0,0,0,.6-6.643,34.142,34.142,0,0,0-.6-6.595,3.426,3.426,0,0,0-2.466-2.439c-2.173-.588-10.932-.588-10.932-.588s-8.74,0-10.9.588a3.519,3.519,0,0,0-2.486,2.439,35.272,35.272,0,0,0-.577,6.595,35.805,35.805,0,0,0,.577,6.643,3.589,3.589,0,0,0,2.486,2.439C59.305,156.682,68.045,156.682,68.045,156.682Z" transform="translate(-54.079 -137.398)" fill="#f03"/>
          <path id="path1414" d="M109.554,165.617l-7.231-4.1v8.2Z" transform="translate(-91.234 -155.975)" fill="#fff"/>
        </g>
      </g>
    </g>
  </g>
</svg>
