<svg xmlns="http://www.w3.org/2000/svg" width="20" height="20" viewBox="0 0 20 20">
  <g id="Group_75160" data-name="Group 75160" transform="translate(-49 -10)">
    <rect id="Rectangle_28502" data-name="Rectangle 28502" width="20" height="20" transform="translate(49 10)" fill="none"/>
    <g id="XMLID_2_" transform="translate(52.543 13.543)">
      <path id="XMLID_4_" d="M4.612,0H.922A.922.922,0,0,0,0,.922v3.69a.922.922,0,0,0,.922.922h3.69a.922.922,0,0,0,.922-.922V.922A.922.922,0,0,0,4.612,0Z" transform="translate(0 0)" fill="#0080a5"/>
      <path id="XMLID_6_" d="M4.612,120H.922a.922.922,0,0,0-.922.922v3.69a.922.922,0,0,0,.922.922h3.69a.922.922,0,0,0,.922-.922v-3.69A.922.922,0,0,0,4.612,120Z" transform="translate(0 -112.621)" fill="#0080a5"/>
      <path id="XMLID_8_" d="M124.612,0h-3.69A.922.922,0,0,0,120,.922v3.69a.922.922,0,0,0,.922.922h3.69a.922.922,0,0,0,.922-.922V.922A.922.922,0,0,0,124.612,0Z" transform="translate(-112.621 0)" fill="#0080a5"/>
      <path id="XMLID_10_" d="M124.612,120h-3.69a.922.922,0,0,0-.922.922v3.69a.922.922,0,0,0,.922.922h3.69a.922.922,0,0,0,.922-.922v-3.69A.922.922,0,0,0,124.612,120Z" transform="translate(-112.621 -112.621)" fill="#0080a5"/>
    </g>
  </g>
</svg>
