<svg xmlns="http://www.w3.org/2000/svg" xmlns:xlink="http://www.w3.org/1999/xlink" width="154.487" height="135.198" viewBox="0 0 154.487 135.198">
  <defs>
    <linearGradient id="linear-gradient" x1="0.448" y1="0.315" x2="1.117" y2="1.207" gradientUnits="objectBoundingBox">
      <stop offset="0" stop-color="#1d5c6d"/>
      <stop offset="0.19" stop-color="#1b5666"/>
      <stop offset="0.46" stop-color="#164653"/>
      <stop offset="0.78" stop-color="#0d2d35"/>
      <stop offset="1" stop-color="#07181c"/>
    </linearGradient>
  </defs>
  <path id="Path_87669" data-name="Path 87669" d="M42.817,134.881H40.225a3.383,3.383,0,0,1-2.938-1.689l-.289-.5L35.915,130.8l-1.083-1.892-1.083-1.892-1.083-1.892-1.083-1.892L30.5,121.337l-1.088-1.892-1.083-1.892-1.083-1.892-1.083-1.892-1.083-1.892-1.083-1.892L22.91,108.09,21.827,106.2l-1.083-1.892-1.083-1.892-1.1-1.892-1.083-1.892L16.4,96.736.457,69.07a3.383,3.383,0,0,1,0-3.383L12.521,44.8a3.383,3.383,0,0,1,5.857,0L34.491,72.713l1.088,1.892L36.663,76.5l1.1,1.892,1.083,1.892,1.083,1.892,1.088,1.892,1.088,1.892,1.083,1.892,1.088,1.892,1.083,1.892,1.083,1.892,1.083,1.892,1.088,1.892,1.088,1.892,1.083,1.892.643,1.126a3.449,3.449,0,0,0,.511.677,3.383,3.383,0,0,0,5.341-.677l1.566-2.711,3.524-6.079a3.383,3.383,0,0,0,0-3.383l-.364-.676-1.083-1.892L59.839,85.59,58.751,83.7l-1.083-1.892-1.083-1.892L55.5,78.021l-1.088-1.892-1.083-1.892-1.088-1.892-1.083-1.892L50.07,68.559l-1.083-1.892L47.9,64.775l-1.121-1.892L45.694,60.99,44.606,59.1,25.384,25.849a3.383,3.383,0,0,1,0-3.383L37.358,1.689A3.383,3.383,0,0,1,40.305,0H63.959a3.383,3.383,0,0,1,2.924,1.689l8.946,15.489,1.083,1.892L78,20.962l1.083,1.892,1.083,1.892,1.088,1.892,1.088,1.892,1.083,1.892,1.088,1.892.993,1.689.109.057h0L86.7,35.954l1.083,1.892,1.088,1.892,1.083,1.892,1.083,1.892.047.08,1.041,1.8L93.206,47.3l1.088,1.892,1.083,1.892h0l1.083,1.892,1.083,1.892,1.083,1.892,1.083,1.892,1.088,1.892,1.083,1.892h0l1.083,1.892,1.083,1.892,1.083,1.892,1.031,1.779.085.062v.033l.837,1.452.246.431,1.083,1.892,1.083,1.892,1.083,1.892,1.083,1.892,1.088,1.892,1.088,1.892,1.083,1.892,1.083,1.892,1.083,1.892,1.088,1.892,1.083,1.892,1.088,1.892,1.083,1.892,1.083,1.892,1.088,1.892,1.083,1.892,1.083,1.892,1.088,1.892,1.088,1.892,1.008,1.746.071.137h0a3.383,3.383,0,0,1-.071,3.245l-.473.852-8.516,14.826-2.782,4.825A3.383,3.383,0,0,1,115.5,134.9a1.689,1.689,0,0,1-.563.114l-4.825.142H90.239a3.383,3.383,0,0,1-2.839-1.689l-.383-.667-1.083-1.892-1.088-1.892-1.083-1.892-1.088-1.892-.312-.563a3.373,3.373,0,0,0-5.852,0l-1.566,2.711-3.5,6.065a3.383,3.383,0,0,1-2.919,1.689h-.7l-.047.061ZM137.3,91.513a3.383,3.383,0,0,1-1.325-1.292l-.09-.151L134.8,88.178l-1.083-1.892-1.083-1.892L131.544,82.5l-1.088-1.892-.913-1.58-.175-.3-1.083-1.892h0L127.2,74.941l-1.083-1.892-1.088-1.892-1.069-1.892-1.126-1.892h0l-1.083-1.892h0l-1.083-1.892-1.083-1.892L118.5,59.8l-1.083-1.892-1.083-1.892-.3-.525-.785-1.358-1.083-1.892L113.07,50.35l-1.083-1.892L110.9,46.566h0l-1.083-1.892-1.088-1.892-1.083-1.892L106.561,39,105.477,37.1h0l-1.083-1.892-1.083-1.892-1.083-1.892-1.083-1.892h0l-1.083-1.892L98.972,25.75l-1.083-1.892L97.44,23.4l-.563-1.012L95.789,20.5l-1.1-1.892L93.56,16.714l-1.083-1.892-1.083-1.892-1.088-1.892L89.222,9.145,88.144,7.252,87.032,5.474l-.232-.4a3.335,3.335,0,0,1-.44-2.034A3.714,3.714,0,0,1,88.631,0h25.651a3.383,3.383,0,0,1,2.929,1.689l1.083,1.892,1.083,1.892,1.083,1.892,1.083,1.892,1.083,1.892,1.083,1.892,1.083,1.892,1.083,1.892,1.083,1.892,1.083,1.892,1.083,1.892L130.21,24.4l1.083,1.892.9,1.571.18.317,1.083,1.892,1.083,1.892,1.083,1.892,1.083,1.892,1.083,1.892,1.083,1.892,1.083,1.892,1.083,1.892,1.083,1.892,1.083,1.892,1.083,1.892,1.083,1.892,1.083,1.892,1.083,1.892,1.083,1.892,1.083,1.892,1.083,1.892,1.083,1.892,1.083,1.892,1.083,1.892h0a3.383,3.383,0,0,1,.071,3.231h0l-.08.142-8.454,14.666-3.718,6.448a3.335,3.335,0,0,1-2.3,1.632,3.425,3.425,0,0,1-2.252-.345Z" transform="translate(-0.004)" fill="url(#linear-gradient)"/>
</svg>
